<svg width="500" height="500" viewBox="0 0 500 500" fill="none" xmlns="http://www.w3.org/2000/svg">
<rect width="500" height="500" fill="black"/>
<path d="M208.333 183.333V283.333M208.333 183.333H258.333C267.174 183.333 275.652 186.845 281.904 193.096C288.155 199.348 291.667 207.826 291.667 216.667C291.667 225.507 288.155 233.986 281.904 240.237C275.652 246.488 267.174 250 258.333 250H208.333V183.333ZM208.333 283.333C199.493 283.333 191.014 286.845 184.763 293.096C178.512 299.348 175 307.826 175 316.667M208.333 283.333H275C288.261 283.333 300.979 276.31 310.355 263.807C319.732 251.305 325 234.348 325 216.667C325 198.986 319.732 182.029 310.355 169.526C300.979 157.024 288.261 150 275 150H175V316.667M175 316.667C175 325.507 178.512 333.986 184.763 340.237C191.014 346.488 199.493 350 208.333 350V300" stroke="white" stroke-width="10" stroke-linecap="square" stroke-linejoin="round"/>
</svg>
