<svg width="210" height="210" viewBox="0 0 210 210" fill="none" xmlns="http://www.w3.org/2000/svg">
<path d="M5 105H0H5ZM42.5 105H37.5H42.5ZM105 167.5L105 172.5L105 167.5ZM167.5 105L172.5 105L167.5 105ZM105 0C77.1523 0 50.4451 11.0625 30.7538 30.7538L37.8249 37.8249C55.6408 20.0089 79.8044 10 105 10V0ZM30.7538 30.7538C11.0625 50.4451 0 77.1523 0 105H10C10 79.8044 20.0089 55.6408 37.8249 37.8249L30.7538 30.7538ZM0 105C0 132.848 11.0625 159.555 30.7538 179.246L37.8249 172.175C20.0089 154.359 10 130.196 10 105H0ZM30.7538 179.246C50.4451 198.938 77.1523 210 105 210V200C79.8044 200 55.6408 189.991 37.8249 172.175L30.7538 179.246ZM105 210C132.848 210 159.555 198.938 179.246 179.246L172.175 172.175C154.359 189.991 130.196 200 105 200V210ZM179.246 179.246C198.938 159.555 210 132.848 210 105H200C200 130.196 189.991 154.359 172.175 172.175L179.246 179.246ZM210 105C210 77.1523 198.938 50.4451 179.246 30.7538L172.175 37.8249C189.991 55.6408 200 79.8044 200 105H210ZM179.246 30.7538C159.555 11.0625 132.848 0 105 0V10C130.196 10 154.359 20.0089 172.175 37.8249L179.246 30.7538ZM105 37.5C87.0979 37.5 69.929 44.6116 57.2703 57.2703L64.3414 64.3414C75.1247 53.558 89.7501 47.5 105 47.5V37.5ZM57.2703 57.2703C44.6116 69.929 37.5 87.0979 37.5 105H47.5C47.5 89.7501 53.558 75.1247 64.3414 64.3414L57.2703 57.2703ZM37.5 105C37.5 122.902 44.6116 140.071 57.2703 152.73L64.3414 145.659C53.558 134.875 47.5 120.25 47.5 105H37.5ZM57.2703 152.73C69.929 165.388 87.0979 172.5 105 172.5L105 162.5C89.75 162.5 75.1247 156.442 64.3414 145.659L57.2703 152.73ZM105 172.5C122.902 172.5 140.071 165.388 152.73 152.73L145.659 145.659C134.875 156.442 120.25 162.5 105 162.5L105 172.5ZM152.73 152.73C165.388 140.071 172.5 122.902 172.5 105L162.5 105C162.5 120.25 156.442 134.875 145.659 145.659L152.73 152.73ZM172.5 105C172.5 87.0979 165.388 69.929 152.73 57.2703L145.659 64.3414C156.442 75.1247 162.5 89.75 162.5 105L172.5 105ZM152.73 57.2703C140.071 44.6116 122.902 37.5 105 37.5V47.5C120.25 47.5 134.875 53.558 145.659 64.3414L152.73 57.2703ZM64.3765 51.0957C42.665 68.4648 30.3719 89.432 28.1455 113.922C25.9358 138.23 33.7066 165.314 50.6588 194.981L59.3412 190.019C42.9601 161.352 36.1476 136.354 38.1045 114.828C40.0447 93.4847 50.6683 74.8685 70.6235 58.9043L64.3765 51.0957ZM145.623 158.904C167.314 141.552 179.624 120.817 181.854 96.5307C184.066 72.4341 176.285 45.5687 159.341 15.9165L150.659 20.8779C167.048 49.5589 173.85 74.3283 171.896 95.6165C169.959 116.715 159.353 135.115 139.377 151.096L145.623 158.904Z" fill="black"/>
</svg>
