<svg width="160" height="210" viewBox="0 0 160 210" fill="none" xmlns="http://www.w3.org/2000/svg">
<path d="M38.3333 38.3333V138.333M38.3333 38.3333H88.3333C97.1739 38.3333 105.652 41.8452 111.904 48.0964C118.155 54.3476 121.667 62.8261 121.667 71.6667C121.667 80.5072 118.155 88.9857 111.904 95.2369C105.652 101.488 97.1739 105 88.3333 105H38.3333V38.3333ZM38.3333 138.333C29.4928 138.333 21.0143 141.845 14.7631 148.096C8.51189 154.348 5 162.826 5 171.667M38.3333 138.333H105C118.261 138.333 130.979 131.31 140.355 118.807C149.732 106.305 155 89.3478 155 71.6667C155 53.9856 149.732 37.0286 140.355 24.5262C130.979 12.0238 118.261 5 105 5H5V171.667M5 171.667C5 180.507 8.51189 188.986 14.7631 195.237C21.0143 201.488 29.4928 205 38.3333 205V155" stroke="black" stroke-width="10" stroke-linecap="square" stroke-linejoin="round"/>
</svg>
